<?xml version="1.0" encoding="UTF-8"?>
<svg width="44px" height="50px" viewBox="0 0 44 50" version="1.1" xmlns="http://www.w3.org/2000/svg" xmlns:xlink="http://www.w3.org/1999/xlink">
    <title>fingerprint</title>
    <defs>
        <linearGradient x1="50%" y1="99.9997778%" x2="50%" y2="5.55554012e-05%" id="linearGradient-1">
            <stop stop-color="#4271DD" offset="0%"></stop>
            <stop stop-color="#C02990" offset="100%"></stop>
        </linearGradient>
    </defs>
    <g id="Page-1" stroke="none" stroke-width="1" fill="none" fill-rule="evenodd">
        <g id="GSMA-How-it-works" transform="translate(-524.000000, -623.000000)" fill="url(#linearGradient-1)" fill-rule="nonzero">
            <g id="fingerprint" transform="translate(524.000000, 623.000000)">
                <path d="M1.46666667,8.7890625 C2.27665778,8.7890625 2.93333333,8.13320313 2.93333333,7.32421875 L2.93333333,2.9296875 L7.33333333,2.9296875 C8.14332444,2.9296875 8.8,2.27382813 8.8,1.46484375 C8.8,0.655859375 8.14332444,0 7.33333333,0 L1.46666667,0 C0.656675556,0 0,0.655859375 0,1.46484375 L0,7.32421875 C0,8.13320313 0.656675556,8.7890625 1.46666667,8.7890625 Z M7.33333333,47.0703125 L2.93333333,47.0703125 L2.93333333,42.6757812 C2.93333333,41.8667969 2.27665778,41.2109375 1.46666667,41.2109375 C0.656675556,41.2109375 0,41.8667969 0,42.6757812 L0,48.5351562 C0,49.3441406 0.656675556,50 1.46666667,50 L7.33333333,50 C8.14332444,50 8.8,49.3441406 8.8,48.5351562 C8.8,47.7261719 8.14332444,47.0703125 7.33333333,47.0703125 Z M8.92290667,7.52880859 C9.24743111,8.27001953 10.1123733,8.60810547 10.8543111,8.28398438 C14.3892711,6.73994141 18.1392444,5.95703125 22,5.95703125 C25.8607556,5.95703125 29.6107289,6.73994141 33.1455911,8.28398438 C33.8880178,8.60820313 34.7525689,8.26992188 35.0770933,7.52880859 C35.4016178,6.78759766 35.0631111,5.92392578 34.3210756,5.59970703 C30.4131911,3.89287109 26.2678044,3.02734375 22,3.02734375 C17.7321956,3.02734375 13.5868089,3.89287109 9.67902222,5.59970703 C8.93679111,5.92392578 8.59838222,6.78759766 8.92290667,7.52880859 Z M5.52424889,15.1124023 C4.91675556,15.6475586 4.85867556,16.5732422 5.39449778,17.1799805 C5.93032,17.7866211 6.85705778,17.8447266 7.46464889,17.3095703 C11.4855644,13.7671875 16.6476444,11.8164063 22,11.8164063 C27.3523556,11.8164063 32.5144356,13.7671875 36.5353511,17.3094727 C37.14392,17.8454102 38.0706578,17.7856445 38.6055022,17.1798828 C39.1413244,16.5731445 39.0832444,15.6474609 38.4758489,15.1123047 C33.91872,11.0977539 28.0674044,8.88671875 22,8.88671875 C15.9325956,8.88671875 10.0813778,11.0977539 5.52424889,15.1124023 Z M12.3158933,37.1964844 C11.9293778,36.1042969 11.7333333,34.9579102 11.7333333,33.7890625 C11.7333333,28.1350586 16.33896,23.5351563 22,23.5351563 C27.66104,23.5351563 32.2666667,28.1350586 32.2666667,33.7890625 C32.2666667,34.5980469 32.9233422,35.2539063 33.7333333,35.2539063 C34.5433244,35.2539063 35.2,34.5980469 35.2,33.7890625 C35.2,26.5196289 29.27848,20.6054688 22,20.6054688 C14.72152,20.6054688 8.8,26.5196289 8.8,33.7890625 C8.8,35.2914063 9.05246222,36.7663086 9.55034667,38.1729492 L11.2822844,43.0663086 C11.5528356,43.8307617 12.3918667,44.2282227 13.1539467,43.9591797 C13.9176889,43.6895508 14.3178933,42.8526367 14.0480267,42.0898438 L12.3158933,37.1964844 Z M42.5333333,5.32907052e-15 L36.6666667,5.32907052e-15 C35.8566756,5.32907052e-15 35.2,0.655859375 35.2,1.46484375 C35.2,2.27382813 35.8566756,2.9296875 36.6666667,2.9296875 L41.0666667,2.9296875 L41.0666667,7.32421875 C41.0666667,8.13320313 41.7233422,8.7890625 42.5333333,8.7890625 C43.3433244,8.7890625 44,8.13320313 44,7.32421875 L44,1.46484375 C44,0.655859375 43.3433244,5.32907052e-15 42.5333333,5.32907052e-15 Z M42.5333333,41.2109375 C41.7233422,41.2109375 41.0666667,41.8667969 41.0666667,42.6757813 L41.0666667,47.0703125 L36.6666667,47.0703125 C35.8566756,47.0703125 35.2,47.7261719 35.2,48.5351563 C35.2,49.3441406 35.8566756,50 36.6666667,50 L42.5333333,50 C43.3433244,50 44,49.3441406 44,48.5351562 L44,42.6757812 C44,41.8667969 43.3433244,41.2109375 42.5333333,41.2109375 L42.5333333,41.2109375 Z M41.0666667,33.7890625 C41.0666667,23.2887695 32.51336,14.7460938 22,14.7460938 C11.48664,14.7460938 2.93333333,23.2887695 2.93333333,33.7890625 C2.93333333,35.9585938 3.29833778,38.090332 4.01827556,40.1250977 C4.28824,40.8878906 5.12609778,41.2876953 5.88984,41.0181641 C6.65358222,40.7486328 7.05388444,39.9117188 6.78401778,39.1489258 C6.17535111,37.4285156 5.86666667,35.6251953 5.86666667,33.7890625 C5.86666667,24.9041992 13.10408,17.6757813 22,17.6757813 C30.89592,17.6757813 38.1333333,24.9041992 38.1333333,33.7890625 C38.1333333,36.212207 36.1594933,38.1835938 33.7333333,38.1835938 C31.3071733,38.1835938 29.3333333,36.212207 29.3333333,33.7890625 C29.3333333,29.7504883 26.0436,26.4648438 22,26.4648438 C17.9564,26.4648438 14.6666667,29.7504883 14.6666667,33.7890625 C14.6666667,34.6233398 14.8060978,35.4413086 15.08144,36.2213867 L18.5416,45.9960938 C18.8122489,46.7605469 19.65128,47.1579102 20.4132622,46.8888672 C21.1770044,46.6192383 21.5771111,45.7822266 21.3071467,45.0195313 L17.8473778,35.2460938 C17.6832089,34.780957 17.6,34.2908203 17.6,33.7890625 C17.6,31.365918 19.57384,29.3945313 22,29.3945313 C24.42616,29.3945313 26.4,31.365918 26.4,33.7890625 C26.4,37.8276367 29.6897333,41.1132813 33.7333333,41.1132813 C37.7769333,41.1132813 41.0666667,37.8276367 41.0666667,33.7890625 Z M31.1668622,43.71875 C26.6331022,42.5490234 23.4666667,38.4657227 23.4666667,33.7890625 C23.4666667,32.9800781 22.8099911,32.3242188 22,32.3242188 C21.1900089,32.3242188 20.5333333,32.9800781 20.5333333,33.7890625 C20.5333333,39.8017578 24.6043111,45.0514648 30.4331378,46.5553711 C31.2195644,46.7583008 32.0180178,46.2844727 32.2200267,45.5035156 C32.42272,44.7202148 31.95104,43.9210938 31.1668622,43.71875 L31.1668622,43.71875 Z" id="Shape"></path>
            </g>
        </g>
    </g>
</svg>