<?xml version="1.0" encoding="UTF-8"?>
<svg width="50px" height="50px" viewBox="0 0 50 50" version="1.1" xmlns="http://www.w3.org/2000/svg" xmlns:xlink="http://www.w3.org/1999/xlink">
    <title>control (1)</title>
    <defs>
        <linearGradient x1="50%" y1="99.9997778%" x2="50%" y2="5.55554012e-05%" id="linearGradient-1">
            <stop stop-color="#4271DD" offset="0%"></stop>
            <stop stop-color="#C02990" offset="100%"></stop>
        </linearGradient>
    </defs>
    <g id="Page-1" stroke="none" stroke-width="1" fill="none" fill-rule="evenodd">
        <g id="GSMA-How-it-works" transform="translate(-927.000000, -623.000000)" fill="url(#linearGradient-1)" fill-rule="nonzero">
            <g id="control-(1)" transform="translate(927.000000, 623.000000)">
                <path d="M48.5351562,0 L1.46484375,0 C0.655175781,0 0,0.655175781 0,1.46484375 L0,39.7460938 C0,40.5557617 0.655175781,41.2109375 1.46484375,41.2109375 L20.0370117,41.2109375 L18.0839844,47.0703125 L16.2109375,47.0703125 C15.4012695,47.0703125 14.7460938,47.7254883 14.7460938,48.5351562 C14.7460938,49.3448242 15.4012695,50 16.2109375,50 L33.7890625,50 C34.5987305,50 35.2539062,49.3448242 35.2539062,48.5351562 C35.2539062,47.7254883 34.5987305,47.0703125 33.7890625,47.0703125 L31.9160156,47.0703125 L29.9629883,41.2109375 L48.5351562,41.2109375 C49.3448242,41.2109375 50,40.5557617 50,39.7460938 L50,1.46484375 C50,0.655175781 49.3448242,0 48.5351562,0 Z M21.1739258,47.0703125 L23.1269531,41.2109375 L26.8731445,41.2109375 L28.8261719,47.0703125 L21.1739258,47.0703125 Z M47.0703125,38.28125 L2.9296875,38.28125 L2.9296875,2.9296875 L47.0703125,2.9296875 L47.0703125,38.28125 Z M10.3515625,14.7460938 L15.015918,14.7460938 C15.6226563,16.4474609 17.2333984,17.6757812 19.140625,17.6757812 C21.0478516,17.6757812 22.6585938,16.4474609 23.265332,14.7460938 L39.6484375,14.7460938 C40.4581055,14.7460938 41.1132812,14.090918 41.1132812,13.28125 C41.1132812,12.471582 40.4581055,11.8164062 39.6484375,11.8164062 L23.265332,11.8164062 C22.6585938,10.1150391 21.0478516,8.88671875 19.140625,8.88671875 C17.2333984,8.88671875 15.6226563,10.1150391 15.015918,11.8164062 L10.3515625,11.8164062 C9.54189453,11.8164062 8.88671875,12.471582 8.88671875,13.28125 C8.88671875,14.090918 9.54189453,14.7460938 10.3515625,14.7460938 Z M19.140625,11.8164062 C19.9474609,11.8164062 20.6054688,12.4730469 20.6054688,13.28125 C20.6054688,14.0894531 19.9474609,14.7460938 19.140625,14.7460938 C18.3337891,14.7460938 17.6757812,14.0894531 17.6757812,13.28125 C17.6757812,12.4730469 18.3337891,11.8164062 19.140625,11.8164062 Z M10.3515625,29.3945312 L26.734668,29.3945312 C27.3414063,31.0958984 28.9521484,32.3242188 30.859375,32.3242188 C32.7666016,32.3242188 34.3773438,31.0958984 34.984082,29.3945312 L39.6484375,29.3945312 C40.4581055,29.3945312 41.1132812,28.7393555 41.1132812,27.9296875 C41.1132812,27.1200195 40.4581055,26.4648438 39.6484375,26.4648438 L34.984082,26.4648438 C34.3773438,24.7634766 32.7666016,23.5351562 30.859375,23.5351562 C28.9521484,23.5351562 27.3414063,24.7634766 26.734668,26.4648438 L10.3515625,26.4648438 C9.54189453,26.4648438 8.88671875,27.1200195 8.88671875,27.9296875 C8.88671875,28.7393555 9.54189453,29.3945312 10.3515625,29.3945312 Z M30.859375,26.4648438 C31.6662109,26.4648438 32.3242188,27.1214844 32.3242188,27.9296875 C32.3242188,28.7378906 31.6662109,29.3945312 30.859375,29.3945312 C30.0525391,29.3945312 29.3945312,28.7378906 29.3945312,27.9296875 C29.3945312,27.1214844 30.0525391,26.4648438 30.859375,26.4648438 Z" id="Shape"></path>
            </g>
        </g>
    </g>
</svg>