<?xml version="1.0" encoding="UTF-8"?>
<svg width="57px" height="50px" viewBox="0 0 57 50" version="1.1" xmlns="http://www.w3.org/2000/svg" xmlns:xlink="http://www.w3.org/1999/xlink">
    <title>safety</title>
    <defs>
        <linearGradient x1="50%" y1="99.9997778%" x2="50%" y2="5.55554012e-05%" id="linearGradient-1">
            <stop stop-color="#4271DD" offset="0%"></stop>
            <stop stop-color="#C02990" offset="100%"></stop>
        </linearGradient>
    </defs>
    <g id="Page-1" stroke="none" stroke-width="1" fill="none" fill-rule="evenodd">
        <g id="GSMA-How-it-works" transform="translate(-122.000000, -623.000000)" fill="url(#linearGradient-1)" fill-rule="nonzero">
            <g id="safety" transform="translate(122.000000, 623.000000)">
                <path d="M55.3300781,43.3332407 L33.2225391,43.3332407 C32.7185566,41.9150225 31.5909141,40.7895811 30.1699219,40.2865825 L30.1699219,36.2550382 C38.0985996,33.7001564 43.5292969,26.3405102 43.5292969,17.9228669 L43.5292969,8.33333796 C43.5292969,7.70200638 43.1719336,7.12500799 42.6061641,6.84256433 L29.2467891,0.175916178 C28.7766504,-0.058638726 28.2233496,-0.058638726 27.7532109,0.175916178 L14.3938359,6.84256433 C13.8280664,7.12500799 13.4707031,7.70200638 13.4707031,8.33333796 L13.4707031,17.922978 C13.4707031,26.3406213 18.9014004,33.7001564 26.8300781,36.2551493 L26.8300781,40.2866936 C25.4090859,40.7896923 24.2814434,41.9151336 23.7774609,43.3333519 L1.66992188,43.3333519 C0.747679687,43.3333519 0,44.079572 0,45.0000139 C0,45.9204558 0.747679688,46.6666759 1.66992188,46.6666759 L23.7774609,46.6666759 C24.4668047,48.6065594 26.3229785,50 28.5,50 C30.6770215,50 32.5331953,48.6065594 33.2225391,46.6666759 L55.3300781,46.6666759 C56.2523203,46.6666759 57,45.9204558 57,45.0000139 C57,44.079572 56.2523203,43.3332407 55.3300781,43.3332407 L55.3300781,43.3332407 Z M16.8105469,17.922978 L16.8105469,9.36344621 L28.5,3.53012908 L40.1894531,9.36344621 L40.1894531,17.922978 C40.1894531,25.1092914 35.4042363,31.3636073 28.5,33.2763798 C21.5957637,31.3636073 16.8105469,25.1092914 16.8105469,17.922978 Z M28.5,46.6665648 C27.5792051,46.6665648 26.8300781,45.9189002 26.8300781,44.9999028 C26.8300781,44.0809053 27.5792051,43.3332407 28.5,43.3332407 C29.4207949,43.3332407 30.1699219,44.0809053 30.1699219,44.9999028 C30.1699219,45.9189002 29.4207949,46.6665648 28.5,46.6665648 Z M29.1500449,29.5282791 C33.8273848,27.5553957 36.8496094,23.000075 36.8496094,17.9232002 L36.8496094,12.4528821 C36.8496094,11.8215505 36.4922461,11.2445521 35.9264766,10.9621084 L29.2467891,7.62878436 C28.7766504,7.39422946 28.2233496,7.39422946 27.7532109,7.62878436 L21.0735234,10.9621084 C20.5077539,11.244441 20.1503906,11.8215505 20.1503906,12.452771 L20.1503906,17.9230891 C20.1503906,22.9999639 23.1726152,27.5552846 27.8499551,29.5282791 C28.265543,29.7036119 28.7345684,29.7036119 29.1500449,29.5282791 Z M23.4902344,17.9232002 L23.4902344,13.4828862 L28.5,10.9828862 L33.5097656,13.4828862 L33.5097656,17.9232002 C33.5097656,21.416635 31.5656426,24.5737373 28.5,26.1539551 C25.4343574,24.5737373 23.4902344,21.416635 23.4902344,17.9232002 Z" id="Shape"></path>
            </g>
        </g>
    </g>
</svg>