<?xml version="1.0" encoding="UTF-8"?>
<svg width="378px" height="273px" viewBox="0 0 378 273" version="1.1" xmlns="http://www.w3.org/2000/svg" xmlns:xlink="http://www.w3.org/1999/xlink">
    <title>undraw_Online_learning_re_qw08</title>
    <g id="Page-1" stroke="none" stroke-width="1" fill="none" fill-rule="evenodd">
        <g id="GSMA-How-it-works" transform="translate(-988.000000, -1663.000000)" fill-rule="nonzero">
            <g id="undraw_Online_learning_re_qw08" transform="translate(988.000000, 1663.000000)">
                <path d="M377.453757,271 L0.546242775,271 C0.24456122,271 0,270.776142 0,270.5 C0,270.223858 0.24456122,270 0.546242775,270 L377.453757,270 C377.755439,270 378,270.223858 378,270.5 C378,270.776142 377.755439,271 377.453757,271 Z" id="Path" fill="#CCCCCC"></path>
                <path d="M340.447494,175 L118.552506,175 C116.590511,175 115,176.59643 115,178.56572 C115,180.535009 116.590511,182.131434 118.552506,182.131434 L124.837709,182.131434 L124.837709,267.434286 C124.837709,269.403575 126.42822,271 128.390215,271 C130.35221,271 131.942721,269.403575 131.942721,267.434286 L131.996708,182.131434 L326.51074,182.131434 L326.51074,267.434286 C326.51074,269.403575 328.101251,271 330.063246,271 C332.025241,271 333.615752,269.403575 333.615752,267.434286 L333.615752,184.011585 L334.649318,182.131428 L340.447494,182.131428 C342.409489,182.131428 344,180.535004 344,178.565714 C344,176.596425 342.409489,175 340.447494,175 L340.447494,175 Z" id="Path" fill="#CCCCCC"></path>
                <path d="M241.093136,178 L173.906864,178 C171.198148,177.996922 169.003065,175.792643 169,173.07258 L169,135.92742 C169.003065,133.207357 171.198148,131.003078 173.906864,131 L241.093136,131 C243.801852,131.003078 245.996935,133.207357 246,135.92742 L246,173.07258 C245.996935,175.792643 243.801852,177.996922 241.093136,178 L241.093136,178 Z" id="Path" fill="#3F3D56"></path>
                <path d="M240.876509,135 L174.123491,135 C173.503512,135.001311 173.00126,135.503607 173,136.123591 L173,172.876409 C173.001275,173.496386 173.503518,173.998674 174.123491,174 L240.876509,174 C241.496482,173.998674 241.998725,173.496386 242,172.876409 L242,136.123591 C241.99874,135.503607 241.496488,135.001311 240.876509,135 Z" id="Path" fill="#FFFFFF"></path>
                <path d="M214,160.498033 C214,160.498033 205.715136,158.66847 201.158457,162.022637 C196.601778,165.376803 206.957866,173 206.957866,173 L214,160.498033 Z" id="Path" fill="#2F2E41"></path>
                <circle id="Oval" fill="#A0616A" cx="208.5" cy="149.5" r="7.5"></circle>
                <path d="M202.306954,138.585482 C203.353423,136.885401 205.307413,135.890372 207.365273,136.009638 C208.420987,136.136352 209.4512,136.412357 210.422228,136.82863 L215.453859,138.707166 C216.755859,139.193257 218.181828,139.788682 218.746808,141.012099 C219.271184,142.147596 218.879956,143.458976 218.483922,144.641164 L216.601395,150.260589 C216.392881,148.988758 216.035019,147.74352 215.534608,146.548532 C215.026028,145.34553 214.107044,144.342664 212.9272,143.70313 C211.620228,143.06142 210.079768,143.074709 208.612552,143.142291 C206.534591,143.238003 204.275257,143.491032 202.798851,144.893801 C202.015115,145.690448 201.483767,146.683666 201.266594,147.75796 C201.052846,148.826516 200.945259,149.912037 200.945273,151 C200.093157,149.59811 199.375365,148.12528 198.80068,146.599536 C198.327953,145.463455 198.058574,144.259271 198.003851,143.037533 C197.954457,141.805336 198.38162,140.598989 199.20357,139.649424 C200.05468,138.702911 201.39274,138.29985 202.65683,138.609204 L202.306954,138.585482 Z" id="Path" fill="#2F2E41"></path>
                <path d="M226.210867,167.527561 C226.065885,167.004652 225.622255,166.619955 225.085304,166.551519 C225.067919,166.53939 225.049732,166.52846 225.03087,166.518803 L213.757175,160.183696 C213.088418,159.807935 212.243191,160.026089 211.838477,160.678914 L208.755187,165.684566 L204.111154,161.027923 L204.037339,160.953869 C203.545338,160.460585 202.771152,160.392697 202.201228,160.79286 L192.935953,167.298578 C192.919758,167.298578 192.903292,167.304031 192.887098,167.304031 C191.973601,167.456704 191.288502,168.225211 191.239238,169.152511 L191,174 L228,174 L226.210867,167.527561 Z" id="Path" fill="#95236C"></path>
                <path d="M246.736268,172.714286 L239.567779,172.714286 C239.567776,172.319798 239.229942,172 238.813201,172 L236.549471,172 C236.132732,172 235.794899,172.319799 235.794893,172.714286 L233.531163,172.714286 C233.531157,172.319799 233.193325,172 232.776585,172 L230.51285,172 C230.096111,172 229.75828,172.3198 229.758277,172.714286 L227.494542,172.714286 C227.494539,172.319798 227.156705,172 226.739964,172 L224.476234,172 C224.059495,172 223.721662,172.319799 223.721656,172.714286 L221.457926,172.714286 C221.45792,172.319805 221.120097,172 220.703364,172 L218.439629,172 C218.022891,172 217.685059,172.3198 217.685056,172.714286 L215.421321,172.714286 C215.421318,172.319798 215.083484,172 214.666743,172 L212.403014,172 C211.986273,172 211.648438,172.319798 211.648435,172.714286 L209.384689,172.714286 C209.384683,172.319799 209.046851,172 208.630111,172 L206.366376,172 C205.949636,172 205.611804,172.319799 205.611798,172.714286 L203.348068,172.714286 C203.348065,172.319798 203.010231,172 202.59349,172 L200.32976,172 C199.913019,172 199.575185,172.319798 199.575182,172.714286 L197.311447,172.714286 C197.311444,172.3198 196.973613,172 196.556874,172 L194.293139,172 C193.876399,172 193.538567,172.319799 193.538561,172.714286 L191.274831,172.714286 C191.274825,172.319799 190.936992,172 190.520253,172 L188.256523,172 C187.839782,172 187.501948,172.319798 187.501945,172.714286 L185.23821,172.714286 C185.238207,172.3198 184.900376,172 184.483637,172 L182.219902,172 C181.803162,172 181.46533,172.319799 181.465324,172.714286 L179.20161,172.714286 C179.201604,172.319799 178.863772,172 178.447032,172 L176.183286,172 C175.766545,172 175.428711,172.319798 175.428708,172.714286 L168.260219,172.714286 C167.011367,172.716123 166,173.674974 166,174.857143 C166,176.039312 167.011367,176.998164 168.260219,177 L246.736268,177 C247.986493,177 249,176.04061 249,174.857143 C249,173.673676 247.986493,172.714286 246.736268,172.714286 Z" id="Path" fill="#3F3D56"></path>
                <path d="M157,160.004555 L157,174.995445 L119.706244,174.995445 C116.985448,175.090792 114.429814,173.683389 113.041349,171.325045 C111.652884,168.966702 111.652884,166.033298 113.041349,163.674955 C114.429814,161.316611 116.985448,159.909208 119.706244,160.004555 L157,160.004555 Z" id="Path" fill="#F2F2F2"></path>
                <path d="M158,174.416059 C158,174.738509 157.742074,175 157.42402,175 L118.89093,175 C114.53289,175 111,171.418278 111,167 C111,162.581722 114.53289,159 118.89093,159 L157.42402,159 C157.742125,159 158,159.261439 158,159.583941 C158,159.906442 157.742125,160.167882 157.42402,160.167882 L118.89093,160.167882 C115.171464,160.17127 112.158011,163.229121 112.158011,167 C112.158011,170.770879 115.171464,173.82873 118.89093,173.832118 L157.42402,173.832118 C157.742073,173.832246 158,174.093611 158,174.416059 L158,174.416059 Z" id="Path" fill="#95236C"></path>
                <path d="M156.884321,163.711735 L116.11728,163.711735 C116.075476,163.712257 116.036724,163.672015 116.015739,163.60629 C115.994754,163.540564 115.994754,163.459436 116.015739,163.39371 C116.036724,163.327985 116.075476,163.287743 116.11728,163.288265 L156.884321,163.288265 C156.948337,163.289065 157,163.383627 157,163.5 C157,163.616373 156.948337,163.710935 156.884321,163.711735 L156.884321,163.711735 Z" id="Path" fill="#CCCCCC"></path>
                <path d="M156.884321,165.711735 L116.11728,165.711735 C116.075476,165.712257 116.036724,165.672015 116.015739,165.60629 C115.994754,165.540564 115.994754,165.459436 116.015739,165.39371 C116.036724,165.327985 116.075476,165.287743 116.11728,165.288265 L156.884321,165.288265 C156.948337,165.289065 157,165.383627 157,165.5 C157,165.616373 156.948337,165.710935 156.884321,165.711735 Z" id="Path" fill="#CCCCCC"></path>
                <path d="M156.884321,168.711735 L116.11728,168.711735 C116.075476,168.712257 116.036724,168.672015 116.015739,168.60629 C115.994754,168.540564 115.994754,168.459436 116.015739,168.39371 C116.036724,168.327985 116.075476,168.287743 116.11728,168.288265 L156.884321,168.288265 C156.948337,168.289065 157,168.383627 157,168.5 C157,168.616373 156.948337,168.710935 156.884321,168.711735 L156.884321,168.711735 Z" id="Path" fill="#CCCCCC"></path>
                <path d="M156.884321,171.711735 L116.11728,171.711735 C116.075476,171.712257 116.036724,171.672015 116.015739,171.60629 C115.994754,171.540564 115.994754,171.459436 116.015739,171.39371 C116.036724,171.327985 116.075476,171.287743 116.11728,171.288265 L156.884321,171.288265 C156.948337,171.289065 157,171.383627 157,171.5 C157,171.616373 156.948337,171.710935 156.884321,171.711735 L156.884321,171.711735 Z" id="Path" fill="#CCCCCC"></path>
                <path d="M149,144.004555 L149,158.995445 L111.706244,158.995445 C108.985448,159.090792 106.429814,157.683389 105.041349,155.325045 C103.652884,152.966702 103.652884,150.033298 105.041349,147.674955 C106.429814,145.316611 108.985448,143.909208 111.706244,144.004555 L149,144.004555 Z" id="Path" fill="#F2F2F2"></path>
                <path d="M151,159.416059 C151,159.738509 150.742074,160 150.42402,160 L111.890931,160 C109.071773,160 106.466763,158.475209 105.057184,156 C103.647605,153.524791 103.647605,150.475209 105.057184,148 C106.466763,145.524791 109.071773,144 111.890931,144 L150.42402,144 C150.742125,144 151,144.261439 151,144.583941 C151,144.906442 150.742125,145.167882 150.42402,145.167882 L111.890931,145.167882 C108.171464,145.17127 105.158012,148.229121 105.158012,152 C105.158012,155.770879 108.171464,158.82873 111.890931,158.832118 L150.42402,158.832118 C150.742073,158.832246 151,159.093611 151,159.416059 L151,159.416059 Z" id="Path" fill="#3F3D56"></path>
                <path d="M149.884321,147.711735 L109.11728,147.711735 C109.075476,147.712257 109.036724,147.672015 109.015739,147.60629 C108.994754,147.540564 108.994754,147.459436 109.015739,147.39371 C109.036724,147.327985 109.075476,147.287743 109.11728,147.288265 L149.884321,147.288265 C149.948337,147.289065 150,147.383627 150,147.5 C150,147.616373 149.948337,147.710935 149.884321,147.711735 L149.884321,147.711735 Z" id="Path" fill="#CCCCCC"></path>
                <path d="M149.884321,150.711735 L109.11728,150.711735 C109.075476,150.712257 109.036724,150.672015 109.015739,150.60629 C108.994754,150.540564 108.994754,150.459436 109.015739,150.39371 C109.036724,150.327985 109.075476,150.287743 109.11728,150.288265 L149.884321,150.288265 C149.948337,150.289065 150,150.383627 150,150.5 C150,150.616373 149.948337,150.710935 149.884321,150.711735 L149.884321,150.711735 Z" id="Path" fill="#CCCCCC"></path>
                <path d="M149.884321,152.711735 L109.11728,152.711735 C109.075476,152.712257 109.036724,152.672015 109.015739,152.60629 C108.994754,152.540564 108.994754,152.459436 109.015739,152.39371 C109.036724,152.327985 109.075476,152.287743 109.11728,152.288265 L149.884321,152.288265 C149.948337,152.289065 150,152.383627 150,152.5 C150,152.616373 149.948337,152.710935 149.884321,152.711735 L149.884321,152.711735 Z" id="Path" fill="#CCCCCC"></path>
                <path d="M149.884321,155.711735 L109.11728,155.711735 C109.075476,155.712257 109.036724,155.672015 109.015739,155.60629 C108.994754,155.540564 108.994754,155.459436 109.015739,155.39371 C109.036724,155.327985 109.075476,155.287743 109.11728,155.288265 L149.884321,155.288265 C149.948337,155.289065 150,155.383627 150,155.5 C150,155.616373 149.948337,155.710935 149.884321,155.711735 L149.884321,155.711735 Z" id="Path" fill="#CCCCCC"></path>
                <path d="M193,228 L193,215.142857 C193,213.9594 192.023157,213 190.818182,213 L141.181818,213 C139.976843,213 139,213.9594 139,215.142857 L139,228 L193,228 Z" id="Path" fill="#CCCCCC"></path>
                <rect id="Rectangle" fill="#CCCCCC" x="139" y="233" width="54" height="17"></rect>
                <path d="M139,255 L139,267.857143 C139,269.0406 139.976843,270 141.181818,270 L190.818182,270 C192.023157,270 193,269.0406 193,267.857143 L193,255 L139,255 Z" id="Path" fill="#CCCCCC"></path>
                <circle id="Oval" fill="#FFFFFF" cx="166.5" cy="221.5" r="1.5"></circle>
                <circle id="Oval" fill="#FFFFFF" cx="166.5" cy="242.5" r="1.5"></circle>
                <circle id="Oval" fill="#FFFFFF" cx="166.5" cy="264.5" r="1.5"></circle>
                <path d="M187,198.004555 L187,212.995445 L149.706244,212.995445 C146.985448,213.090792 144.429814,211.683389 143.041349,209.325045 C141.652884,206.966702 141.652884,204.033298 143.041349,201.674955 C144.429814,199.316611 146.985448,197.909208 149.706244,198.004555 L187,198.004555 Z" id="Path" fill="#F2F2F2"></path>
                <path d="M188,213.416057 C188,213.738506 187.74211,214 187.424101,214 L148.896384,214 C146.076059,214.002372 143.468968,212.4781 142.058129,210.001917 C140.64729,207.525734 140.64729,204.474266 142.058129,201.998083 C143.468968,199.5219 146.076059,197.997628 148.896384,198 L187.424101,198 C187.742161,198 188,198.261442 188,198.583943 C188,198.906445 187.742161,199.167884 187.424101,199.167884 L148.896384,199.167884 C145.177436,199.171272 142.164404,202.229122 142.164404,206 C142.164404,209.770878 145.177436,212.828728 148.896384,212.832116 L187.424101,212.832116 C187.742109,212.832244 188,213.093608 188,213.416057 L188,213.416057 Z" id="Path" fill="#3F3D56"></path>
                <path d="M187.884321,201.711735 L147.11728,201.711735 C147.075476,201.712257 147.036724,201.672015 147.015739,201.60629 C146.994754,201.540564 146.994754,201.459436 147.015739,201.39371 C147.036724,201.327985 147.075476,201.287743 147.11728,201.288265 L187.884321,201.288265 C187.948337,201.289065 188,201.383627 188,201.5 C188,201.616373 187.948337,201.710935 187.884321,201.711735 L187.884321,201.711735 Z" id="Path" fill="#CCCCCC"></path>
                <path d="M187.884321,204.711735 L147.11728,204.711735 C147.075476,204.712257 147.036724,204.672015 147.015739,204.60629 C146.994754,204.540564 146.994754,204.459436 147.015739,204.39371 C147.036724,204.327985 147.075476,204.287743 147.11728,204.288265 L187.884321,204.288265 C187.948337,204.289065 188,204.383627 188,204.5 C188,204.616373 187.948337,204.710935 187.884321,204.711735 L187.884321,204.711735 Z" id="Path" fill="#CCCCCC"></path>
                <path d="M187.884321,206.711735 L147.11728,206.711735 C147.075476,206.712257 147.036724,206.672015 147.015739,206.60629 C146.994754,206.540564 146.994754,206.459436 147.015739,206.39371 C147.036724,206.327985 147.075476,206.287743 147.11728,206.288265 L187.884321,206.288265 C187.948337,206.289065 188,206.383627 188,206.5 C188,206.616373 187.948337,206.710935 187.884321,206.711735 L187.884321,206.711735 Z" id="Path" fill="#CCCCCC"></path>
                <path d="M187.884321,209.711735 L147.11728,209.711735 C147.075476,209.712257 147.036724,209.672015 147.015739,209.60629 C146.994754,209.540564 146.994754,209.459436 147.015739,209.39371 C147.036724,209.327985 147.075476,209.287743 147.11728,209.288265 L187.884321,209.288265 C187.948337,209.289065 188,209.383627 188,209.5 C188,209.616373 187.948337,209.710935 187.884321,209.711735 L187.884321,209.711735 Z" id="Path" fill="#CCCCCC"></path>
                <path d="M137,99.8947414 L137,4.10526409 C137.00258,1.83905793 138.840596,0.00257773705 141.108696,0 L216.891304,0 C219.159398,0.00259274346 220.997405,1.83906416 221,4.10526409 L221,99.8947414 C220.997417,102.160945 219.159402,103.997422 216.891304,104 L141.108696,104 C138.840598,103.997422 137.002583,102.160945 137,99.8947414 Z M141.108696,0.912281516 C139.344605,0.914254741 137.915019,2.34264649 137.913044,4.10526409 L137.913044,99.8947414 C137.915022,101.657358 139.344606,103.085748 141.108696,103.087724 L216.891304,103.087724 C218.655392,103.085745 220.084975,101.657356 220.086956,99.8947414 L220.086956,4.10526409 C220.084978,2.34264774 218.655394,0.914257742 216.891304,0.912281516 L141.108696,0.912281516 Z" id="Shape" fill="#E6E6E6"></path>
                <path d="M183,43.9278465 L183,24.072159 C183.001271,22.9282634 183.929581,22.0012693 185.075101,22 L201.924899,22 C203.070419,22.0012693 203.998729,22.9282634 204,24.072159 L204,43.9278465 C203.998729,45.0717412 203.070418,45.9987337 201.924899,46 L185.075101,46 C183.929582,45.9987337 183.001271,45.0717412 183,43.9278465 Z" id="Path" fill="#95236C"></path>
                <path d="M150,52.9278134 L150,33.0721535 C150.001271,31.9282609 150.929579,31.0012693 152.075097,31 L168.924903,31 C170.070421,31.0012693 170.998729,31.9282609 171,33.0721535 L171,52.927841 C170.998729,54.0717345 170.070421,54.9987277 168.924903,55 L152.075097,55 C150.929568,54.9987276 150.001256,54.0717177 150,52.9278134 L150,52.9278134 Z" id="Path" fill="#CCCCCC"></path>
                <path d="M176,80.927841 L176,61.0721535 C176.001274,59.92826 176.929584,59.0012693 178.075101,59 L194.924899,59 C196.070416,59.0012693 196.998726,59.92826 197,61.0721535 L197,80.927841 C196.998729,82.0717366 196.070419,82.9987307 194.924899,83 L178.075101,83 C176.929581,82.9987307 176.001271,82.0717366 176,80.927841 Z" id="Path" fill="#FF6584"></path>
                <path d="M276.06548,171.001527 L259.192786,171.001527 C259.032664,171.001391 258.874663,171.038701 258.731036,171.110562 L254.472479,173.274915 C254.185999,173.398537 254,173.683979 254,174 C254,174.316022 254.185999,174.601463 254.472479,174.725085 L258.731036,176.889438 C258.874663,176.961299 259.032664,176.998609 259.192786,176.998473 L276.065486,176.998473 C276.549339,177.026895 276.965812,176.655164 277,176.164352 L277,171.83568 C276.965829,171.344854 276.549348,170.973102 276.06548,171.001527 Z" id="Path" fill="#3F3D56"></path>
                <path d="M277,171.83568 L277,176.164352 C276.968168,176.655164 276.580395,177.026895 276.129885,176.998473 L273,176.998473 L273,171.001527 L276.129885,171.001527 C276.580406,170.973105 276.968183,171.344855 277,171.83568 Z" id="Path" fill="#95236C"></path>
                <path d="M276.598044,138.484139 C278.157296,137.816325 279.929548,137.840363 281.469829,138.550217 C283.01011,139.260071 284.17213,140.588322 284.664133,142.201478 C284.73989,142.454334 284.797845,142.712111 284.837578,142.972944 L308.638481,154.686415 L314.146611,151.063733 L321,158.894154 L312.589708,165.673284 C310.512873,167.334268 307.584074,167.446373 305.384505,165.949076 L281.236247,149.37562 C281.056551,149.451251 280.873056,149.517662 280.686488,149.574588 C279.060807,150.062559 277.30258,149.839051 275.853305,148.960187 C274.404029,148.081324 273.401371,146.630587 273.0971,144.972262 C273.052527,144.734294 273.023121,144.493774 273.009058,144.252132 C272.871852,141.773668 274.303753,139.472407 276.598044,138.484139 L276.598044,138.484139 Z" id="Path" fill="#FFB8B8"></path>
                <path d="M326.152187,212 L299.851189,212 C299.851189,212.766667 272.74476,213.388889 272.74476,213.388889 C272.319305,213.713762 271.93155,214.086514 271.588924,214.5 C270.559339,215.745285 269.996599,217.319361 270,218.944444 L270,220.055556 C270.001406,223.890282 273.066467,226.99859 276.84784,227 L326.152176,227 C329.932763,226.996667 332.996714,223.889485 333,220.055556 L333,218.944444 C332.994765,215.111339 329.931961,212.005315 326.152187,212 Z" id="Path" fill="#3F3D56"></path>
                <rect id="Rectangle" fill="#3F3D56" transform="translate(301.500000, 249.000000) rotate(-180.000000) translate(-301.500000, -249.000000) " x="298" y="226" width="7" height="46"></rect>
                <path d="M277,271.578017 C277,272.314639 287.745165,271.862942 301,271.862942 C314.254835,271.862942 325,272.314639 325,271.578017 C325,270.841395 314.254835,265 301,265 C287.745165,265 277,270.841405 277,271.578017 Z" id="Path" fill="#3F3D56"></path>
                <polygon id="Path" fill="#FFB8B8" points="283.998895 266 277.223721 265.999465 274 249 284 249.000535"></polygon>
                <path d="M285.999583,273 L264,272.999173 L264,272.715935 C264,270.404293 264.902129,268.187325 266.507994,266.55276 C268.113859,264.918196 270.291882,264 272.562901,264 L272.563457,264 L286,264.000566 L285.999583,273 Z" id="Path" fill="#2F2E41"></path>
                <path d="M273.339346,255.548702 L259.940862,225.723983 C257.621082,220.511132 259.725341,214.403822 264.775208,211.692987 L293.837108,196.223449 L307.098673,195.103752 L319.331565,194 L319.419765,194.148265 C319.53259,194.337451 322.162765,198.847054 320.384869,203.791884 C319.0363,207.542625 315.528436,210.472325 309.958785,212.499677 C296.958601,217.231416 281.940821,221.275518 276.087565,222.794299 C275.564326,222.927108 275.123221,223.275582 274.875399,223.751914 C274.627014,224.222451 274.588003,224.77461 274.767793,225.274955 L287.215491,253.035629 C287.478976,253.749203 287.39375,254.543772 286.98481,255.186277 C286.57587,255.828781 285.889575,256.246385 285.127226,256.316598 L275.826178,256.988839 C275.747216,256.99628 275.66861,257 275.59036,257 C274.617219,257 273.73534,256.431097 273.339346,255.548702 Z" id="Path" fill="#2F2E41"></path>
                <polygon id="Path" fill="#FFB8B8" points="286.998895 266 280.223721 265.999465 277 249 287 249.000535"></polygon>
                <path d="M288.999583,273 L267,272.999173 L267,272.715935 C267,270.404293 267.902129,268.187325 269.507994,266.55276 C271.113859,264.918196 273.291882,264 275.562901,264 L275.563457,264 L289,264.000566 L288.999583,273 Z" id="Path" fill="#2F2E41"></path>
                <path d="M277.339346,257.548702 L263.940862,227.723983 C261.621082,222.511132 263.725341,216.403822 268.775208,213.692987 L297.837108,198.223449 L311.098673,197.103752 L323.331565,196 L323.419765,196.148265 C323.53259,196.337451 326.162765,200.847054 324.384869,205.791884 C323.0363,209.542625 319.528436,212.472325 313.958785,214.499677 C300.958601,219.231416 285.940821,223.275518 280.087565,224.794299 C279.564326,224.927108 279.123221,225.275582 278.875399,225.751914 C278.627014,226.222451 278.588003,226.77461 278.767793,227.274955 L291.215491,255.035629 C291.478976,255.749203 291.39375,256.543772 290.98481,257.186277 C290.57587,257.828781 289.889575,258.246385 289.127226,258.316598 L279.826178,258.988839 C279.747216,258.99628 279.66861,259 279.59036,259 C278.617219,259 277.73534,258.431097 277.339346,257.548702 Z" id="Path" fill="#2F2E41"></path>
                <path d="M270.393908,166.077071 C264.734607,158.58733 260.260728,150.279949 257.127649,141.443442 C256.752827,140.351876 257.226416,139.150716 258.247226,138.603869 L277.613306,128.27953 C278.248161,127.938494 279.005636,127.907902 279.666184,128.196619 C280.339038,128.487517 280.839449,129.070904 281.022438,129.777759 C283.276513,138.292883 287.513511,146.160528 293.390646,152.744174 C293.880922,153.287184 294.092018,154.024857 293.962747,154.743374 C293.838492,155.450481 293.393343,156.061024 292.756323,156.398039 L273.390248,166.722406 C272.367227,167.26515 271.099752,166.992168 270.393908,166.077071 L270.393908,166.077071 Z" id="Path" fill="#CCCCCC"></path>
                <path d="M271.793648,164.73106 C272.00415,165 272.371693,165.077819 272.669039,164.916208 L291.636198,154.508145 C291.822911,154.408479 291.953255,154.224998 291.988379,154.012391 C292.028477,153.787933 291.963558,153.557202 291.812984,153.389007 C285.88731,146.556604 281.615352,138.39163 279.342749,129.554698 C279.289431,129.333362 279.138051,129.150329 278.933642,129.06005 C278.74106,128.971845 278.519231,128.981236 278.334414,129.085418 L259.367677,139.493193 C259.071271,139.65721 258.930814,140.014042 259.033283,140.342723 C262.046883,149.091245 266.350156,157.315906 271.793648,164.73106 L271.793648,164.73106 Z" id="Path" fill="#FFFFFF"></path>
                <path d="M335,163.399848 L320.017938,169 L316.360147,159.005515 C315.357361,156.2655 316.507071,153.213342 319.082806,151.777617 L319.082806,151.777617 C321.690361,150.324145 324.985764,150.95699 326.846081,153.268467 L335,163.399848 Z" id="Path" fill="#95236C"></path>
                <path d="M295.97741,203.499936 C295.340556,203.045489 294.928098,202.336802 294.845078,201.554357 C292.929112,183.512245 294.263656,169.392882 298.924334,158.389441 C300.587504,154.544361 303.905286,151.67981 307.92805,150.615691 L320.02013,150 L320.082755,150.03052 C325.685747,152.798869 328.826417,158.945745 327.81059,165.155334 C323.921338,175.496774 320.664725,186.263845 323.148319,194.949617 C323.358744,195.683342 323.263786,196.471877 322.885337,197.133441 C322.518276,197.773065 321.905459,198.231201 321.192017,198.399351 L298.160337,203.926098 C297.405796,204.107165 296.610502,203.951904 295.97741,203.499936 Z" id="Path" fill="#95236C"></path>
                <circle id="Oval" fill="#FFB8B8" cx="316.5" cy="132.5" r="13.5"></circle>
                <path d="M279.022625,142.513434 L268.560467,146.868462 C267.731986,147.212314 266.764691,146.85884 266.398249,146.078332 L266.139488,145.525545 C265.774853,144.744285 266.149692,143.832122 266.977375,143.486566 L277.439533,139.131538 C278.268014,138.787686 279.235309,139.14116 279.601751,139.921668 L279.860512,140.474455 C280.225147,141.255715 279.850308,142.167878 279.022625,142.513434 Z" id="Path" fill="#CCCCCC"></path>
                <path d="M283.022625,150.513434 L272.560467,154.868462 C271.731986,155.212314 270.764691,154.85884 270.398249,154.078332 L270.139488,153.525545 C269.774853,152.744285 270.149692,151.832122 270.977375,151.486566 L281.439533,147.131538 C282.268014,146.787686 283.235309,147.14116 283.601751,147.921668 L283.860512,148.474455 C284.225147,149.255715 283.850308,150.167878 283.022625,150.513434 L283.022625,150.513434 Z" id="Path" fill="#CCCCCC"></path>
                <path d="M291.022787,177.744114 L267.889676,159.560442 C267.705413,159.625024 267.51794,159.680128 267.328,159.725535 C265.67673,160.110388 263.939114,159.778293 262.547963,158.811971 C261.147104,157.844646 260.233055,156.322301 260.040028,154.635015 C259.720645,151.889953 261.338995,149.286766 263.94792,148.348998 C265.547572,147.777299 267.316017,147.912596 268.809319,148.720925 C270.30262,149.529254 271.378976,150.933857 271.768187,152.582133 C271.827783,152.840391 271.869263,153.102469 271.892325,153.366468 L294.920873,166.603366 L300.651678,163.315965 L307,171.597081 L298.102181,177.916061 C295.963154,179.422572 293.085595,179.352678 291.022782,177.744109 L291.022787,177.744114 Z" id="Path" fill="#FFB8B8"></path>
                <path d="M310.042804,174 L297,165.167497 L303.12958,156.521978 C304.810026,154.151798 307.960662,153.331846 310.59069,154.580227 L310.59069,154.580227 C313.25322,155.844026 314.593512,158.851756 313.748135,161.665805 L310.042804,174 Z" id="Path" fill="#95236C"></path>
                <path d="M311.935553,130.529116 C308.50287,132.885617 303.995675,135.307962 300.489719,132.798481 C298.187644,131.150712 297.462332,128.099425 298.395865,125.421725 C300.074635,120.60643 304.687012,118.486516 309.097606,116.861552 C314.831374,114.749105 321.074608,113.068556 326.993792,114.581388 C332.912976,116.094219 338.144189,121.842547 337.075663,127.874919 C336.216382,132.726027 331.654244,136.762526 332.301878,141.646594 C332.953683,146.562018 338.46489,149.149358 343.33041,150.027864 C348.19593,150.906369 353.640563,151.188642 357.137215,154.694058 C361.597841,159.165863 360.483949,167.158722 356.286677,171.880058 C352.089406,176.601394 345.755513,178.741526 339.617961,180.196417 C331.486082,182.124058 322.690816,183.13712 314.967583,179.938007 C307.24435,176.738895 301.234237,168.12726 303.471532,160.052054 C304.416561,156.641094 306.642768,153.758375 308.794278,150.951956 C310.945787,148.145536 313.124399,145.210844 313.945105,141.767661 C314.629019,138.898344 314.122821,135.566928 312.225792,133.414611 C311.517917,132.641732 311.387384,131.499292 311.902578,130.585819 L311.935553,130.529116 Z" id="Path" fill="#2F2E41"></path>
                <path d="M59.7273409,194.80166 C52.6294943,197.253885 44.7442185,195.888657 38.9261573,191.20022 C31.6404447,185.189899 29.3561543,175.287929 27.4975091,166.11923 C25.6650079,157.079483 23.8325049,148.03974 22,139 L33.5096061,146.789302 C41.7866266,152.390902 50.2501133,158.171957 55.9810938,166.285602 C61.7120744,174.399247 64.2136402,185.475098 59.6089784,194.254442" id="Path" fill="#E6E6E6"></path>
                <path d="M58.2151779,228.40138 C59.3609859,220.02749 60.539175,211.546037 59.7354513,203.082386 C59.021657,195.565757 56.7360615,188.224115 52.082871,182.204472 C49.6129493,179.015317 46.6075384,176.282847 43.2017508,174.129904 C42.3136301,173.567466 41.4962271,174.979622 42.3804751,175.539618 C48.2734762,179.276399 52.8314988,184.794297 55.3973771,191.297755 C58.2313359,198.529919 58.6864286,206.413592 58.1980707,214.096236 C57.902741,218.742219 57.2768258,223.357754 56.6460887,227.967367 C56.5429183,228.399924 56.7912522,228.838755 57.2143362,228.971519 C57.6472707,229.088564 58.0934847,228.834368 58.2151562,228.40138 L58.2151779,228.40138 Z" id="Path" fill="#F2F2F2"></path>
                <path d="M48,213.949647 C44.982513,218.517454 39.7908892,221.186248 34.3046147,220.989866 C27.3717753,220.662074 21.5919949,215.842748 16.3891102,211.267376 L1,197.734337 L11.1850393,197.248868 C18.5095145,196.899746 26.0229558,196.574095 32.9992678,198.823787 C39.9755798,201.07348 46.4094986,206.48769 47.6851587,213.679843" id="Path" fill="#E6E6E6"></path>
                <path d="M61.8926767,232.916059 C56.3664914,223.261485 49.9565985,212.531523 38.5031993,209.102071 C35.3185823,208.15173 31.9793123,207.811299 28.6652142,208.099111 C27.6207114,208.188036 27.8815327,209.777746 28.9241387,209.688982 C34.4792923,209.233584 40.0237283,210.681889 44.6240142,213.790068 C49.0507866,216.765139 52.4975101,220.901294 55.4147862,225.287485 C57.2017078,227.974156 58.8023168,230.774812 60.4032302,233.571712 C60.9148507,234.465538 62.4102703,233.820327 61.8926767,232.916054 L61.8926767,232.916059 Z" id="Path" fill="#F2F2F2"></path>
                <path d="M70.7743954,243.759515 C70.3955362,239.306651 67.604793,235.437769 63.5352641,233.723715 L63.5352641,228 L54.0705064,228 L54.0705064,233.904083 C50.2061907,235.700035 47.5918703,239.464158 47.2255503,243.759515 L45,270 L73,270 L70.7743954,243.759515 Z" id="Path" fill="#F2F2F2"></path>
            </g>
        </g>
    </g>
</svg>